<svg width="61" height="60" viewBox="0 0 61 60" fill="none" xmlns="http://www.w3.org/2000/svg">
<path d="M30.5 60C47.3447 60 61 46.5685 61 30C61 13.4315 47.3447 0 30.5 0C13.6553 0 0 13.4315 0 30C0 46.5685 13.6553 60 30.5 60Z" fill="url(#paint0_linear)"/>
<path d="M52.3348 30.3654H46.958C46.958 19.5877 38.0443 10.851 27.0478 10.851C16.1876 10.851 7.35804 19.3738 7.14194 29.967C6.91838 40.917 17.3998 50.4256 28.5734 50.4256H29.9789C39.8296 50.4256 53.0327 42.8675 55.0956 33.6586C55.4765 31.9611 54.1085 30.3654 52.3348 30.3654ZM19.0577 30.8456C19.0577 32.2868 17.855 33.4657 16.3845 33.4657C14.9139 33.4657 13.7113 32.2863 13.7113 30.8456V26.607C13.7113 25.1657 14.9139 23.9869 16.3845 23.9869C17.855 23.9869 19.0577 25.1657 19.0577 26.607V30.8456ZM28.3401 30.8456C28.3401 32.2868 27.1375 33.4657 25.6671 33.4657C24.1964 33.4657 22.9938 32.2863 22.9938 30.8456V26.607C22.9938 25.1657 24.197 23.9869 25.6671 23.9869C27.1375 23.9869 28.3401 25.1657 28.3401 26.607V30.8456Z" fill="url(#paint1_linear)"/>
<defs>
<linearGradient id="paint0_linear" x1="30.5" y1="0" x2="30.5" y2="60" gradientUnits="userSpaceOnUse">
<stop stop-color="#534BB1"/>
<stop offset="1" stop-color="#551BF9"/>
</linearGradient>
<linearGradient id="paint1_linear" x1="31.149" y1="10.851" x2="31.149" y2="50.4256" gradientUnits="userSpaceOnUse">
<stop stop-color="white"/>
<stop offset="1" stop-color="white" stop-opacity="0.82"/>
</linearGradient>
</defs>
</svg>
